<?xml version="1.0" encoding="utf-8"?>
<svg width="114px" height="39px" viewBox="0 0 114 39" version="1.1" xmlns:xlink="http://www.w3.org/1999/xlink" xmlns="http://www.w3.org/2000/svg">
  <g id="Group">
    <g id="CryptoBat" fill="#1B1E1B" transform="translate(0 10)">
      <path d="M8.47119 22.2238C12.3866 22.2238 15.3884 19.6 15.9472 15.7348L11.8052 15.7348C11.3933 17.3683 10.1111 18.4312 8.48001 18.4312C6.39849 18.4312 4.87179 16.7816 4.87179 14.5142C4.87179 12.238 6.39849 10.5643 8.48001 10.5643C10.0271 10.5643 11.2972 11.5431 11.8018 13.0507L15.905 13.0507C15.3075 9.32345 12.3236 6.78056 8.47119 6.78056C3.99693 6.78056 0.65541 10.0929 0.65541 14.5144C0.65541 18.9116 3.99693 22.224 8.47119 22.224L8.47119 22.2238ZM88.6105 10.9144C88.6105 12.228 87.8749 13.4096 86.7518 14.09L86.7523 14.0902C88.1374 14.7469 89.0066 16.0621 89.0066 17.6663C89.0066 20.0482 86.9511 21.8523 84.2377 21.8523L77.4623 21.8523L77.4623 7.15226L84.1021 7.15226C86.7086 7.15226 88.6105 8.74259 88.6105 10.9144ZM58.7731 17.1289C58.7731 17.941 59.2633 18.4309 60.0873 18.4309L61.5865 18.4309L61.5865 21.8521L58.8991 21.8521C56.3913 21.8521 54.8671 20.319 54.8671 17.799L54.8671 13.5201L52.7915 13.5201L52.7915 12.607L57.8722 7.19657L58.6746 7.19657L58.6746 10.5121L61.5235 10.5121L61.5235 13.5201L58.7731 13.5201L58.7731 17.1289ZM110.307 17.1289C110.307 17.941 110.797 18.4309 111.621 18.4309L113.12 18.4309L113.12 21.8521L110.433 21.8521C107.925 21.8521 106.401 20.319 106.401 17.799L106.401 13.5201L104.325 13.5201L104.325 12.607L109.406 7.19657L110.209 7.19657L110.209 10.5121L113.057 10.5121L113.057 13.5201L110.307 13.5201L110.307 17.1289ZM46.2006 10.1404C44.8531 10.1404 43.6529 10.6066 42.7203 11.413L42.231 10.5121L39.5747 10.5121L39.5747 25.9471L43.4362 25.9471L43.4362 21.4827C44.2365 21.9661 45.1752 22.2357 46.2006 22.2357C49.6682 22.2357 52.1468 19.7151 52.1468 16.1821C52.1468 12.649 49.6682 10.1404 46.2006 10.1404ZM69.1072 22.2238C72.7925 22.2238 75.4652 19.6853 75.4652 16.1821C75.4652 12.6669 72.7925 10.1406 69.1072 10.1406C65.41 10.1406 62.7493 12.6669 62.7493 16.1821C62.7493 19.6853 65.41 22.2238 69.1072 22.2238ZM100.1 10.4999L99.7004 11.3768C98.764 10.6042 97.571 10.1582 96.2354 10.1582C92.7679 10.1582 90.2893 12.6578 90.2893 16.1699C90.2893 19.6941 92.7679 22.2238 96.2354 22.2238C97.5526 22.2238 98.7286 21.7903 99.6572 21.0381L99.9917 21.8401L103.011 21.8401L103.011 10.5001L100.1 10.4999ZM83.3977 12.8649C84.2447 12.8649 84.7671 12.3481 84.7671 11.5852L84.7669 11.5852C84.7669 10.8222 84.2444 10.3054 83.3975 10.3054L81.3511 10.3054L81.3511 12.8649L83.3977 12.8649ZM24.0425 10.4581C22.6928 10.4581 21.7186 10.8455 20.9189 11.7706L20.3095 10.5121L17.6927 10.5121L17.6927 21.8521L21.5987 21.8521L21.5987 16.0854C21.5987 14.639 22.1779 14.0325 23.5607 14.0325L25.0772 14.0325L25.0772 10.4581L24.0425 10.4581ZM31.9721 16.7589L34.2147 10.5121L38.4109 10.5121L33.658 21.3474C32.1294 24.8181 30.7243 26.0718 27.7962 26.0718L26.4587 26.0718L26.4587 22.7156L27.5329 22.7156C29.0273 22.7156 29.4779 22.3264 30.0071 20.9152L25.321 10.5121L29.5655 10.5121L31.9721 16.7589ZM45.6782 18.777C44.2151 18.777 43.1397 17.6716 43.1397 16.1818C43.1397 14.6921 44.2151 13.5867 45.6782 13.5867C47.1412 13.5867 48.2166 14.6921 48.2166 16.1818C48.2166 17.6716 47.1322 18.777 45.6782 18.777ZM96.7577 18.7653C95.2946 18.7653 94.2192 17.6598 94.2192 16.1789C94.2192 14.707 95.2858 13.6016 96.7577 13.6016C98.2208 13.6016 99.2962 14.707 99.2962 16.1789C99.2962 17.6598 98.2208 18.7653 96.7577 18.7653ZM69.1072 18.7149C67.683 18.7149 66.6616 17.6814 66.6616 16.1823C66.6616 14.6831 67.683 13.6497 69.1072 13.6497C70.5314 13.6497 71.5529 14.6921 71.5529 16.1825C71.5529 17.6817 70.5314 18.7151 69.1072 18.7151L69.1072 18.7149ZM81.3509 18.5273L83.5508 18.5273C84.4278 18.5273 85.0011 17.9776 85.0011 17.1846C85.0011 16.4038 84.4278 15.854 83.5508 15.854L81.3509 15.854L81.3509 18.5273Z" />
    </g>
    <path d="M30 0L53 21L46.5 19C46.5 19 45.7987 16.1354 43.5 14.5C41.2013 12.8646 37.5 12.5 37.5 12.5C37.5 12.5 38.4059 11.1095 36 7C33.5941 2.8905 30 0 30 0Z" id="Rectangle-12" fill="#405CFF" fill-rule="evenodd" stroke="none" />
    <path d="M85 0L62 21L68.5 19C68.5 19 69.2013 16.1354 71.5 14.5C73.7987 12.8646 77.5 12.5 77.5 12.5C77.5 12.5 76.5941 11.1095 79 7C81.4059 2.8905 85 0 85 0Z" id="Rectangle-8-Copy" fill="#405CFF" fill-rule="evenodd" stroke="none" />
  </g>
</svg>